<?xml version="1.0" encoding="utf-8"?>
<!-- Generator: Adobe Illustrator 28.0.0, SVG Export Plug-In . SVG Version: 6.00 Build 0)  -->
<svg version="1.1" id="레이어_1" xmlns="http://www.w3.org/2000/svg" xmlns:xlink="http://www.w3.org/1999/xlink" x="0px"
	 y="0px" viewBox="0 0 4480 1024" style="enable-background:new 0 0 4480 1024;" xml:space="preserve">
<style type="text/css">
	.st0{fill:#F0F0F0;}
	.st1{fill:url(#SVGID_1_);}
	.st2{fill:#F91F15;}
	.st3{fill-rule:evenodd;clip-rule:evenodd;fill:#F0F0F0;}
	.st4{fill:#292929;}
	.st5{fill:url(#SVGID_00000071517343209777008220000009091100896482781611_);}
	.st6{fill-rule:evenodd;clip-rule:evenodd;fill:#292929;}
</style>
<rect x="3.8" y="0.4" width="4472.5" height="1023.2"/>
<g>
	<path class="st0" d="M790.8,352.5c40.9,0,74-33.1,74-74s-33.1-74-74-74s-74,33.1-74,74S749.8,352.5,790.8,352.5z"/>
	<path class="st0" d="M904.2,448.5H770.3c0,132.1-106.4,240.3-237.6,240.3S295.1,580.6,295.1,448.5H161.2
		c0,206.5,166.3,375,371.5,375S904.2,655,904.2,448.5L904.2,448.5z"/>
	
		<linearGradient id="SVGID_1_" gradientUnits="userSpaceOnUse" x1="532.75" y1="-1933.7891" x2="532.75" y2="-2081.7891" gradientTransform="matrix(1 0 0 -1 0 -1535.2891)">
		<stop  offset="0" style="stop-color:#BC0017"/>
		<stop  offset="0.11" style="stop-color:#C30416"/>
		<stop  offset="0.28" style="stop-color:#D90F16"/>
		<stop  offset="0.47" style="stop-color:#F91F15"/>
	</linearGradient>
	<path class="st1" d="M580.5,398.5H477.8l27.7,126.4c2.8,12.9,13.8,21.6,27.3,21.6s24.6-8.7,27.3-21.6l27.7-126.4H580.5z"/>
	<path class="st2" d="M572,353.7c-10.5-10.4-24.5-16.2-39.3-16.2c-30.6,0-55.5,24.9-55.5,55.5s24.9,55.5,55.5,55.5
		s55.5-24.9,55.5-55.5C588.2,378.2,582.5,364.2,572,353.7z"/>
	<path class="st3" d="M3881.6,200.5H4017c80.4,0,146.8,71.1,146.8,151.5s-65.4,153.8-145.8,153.8h-135.4
		c-80.4,0-145.8-73.4-145.8-153.8C3736.9,271.6,3801.2,200.5,3881.6,200.5z M3993.9,417.9c32.7,0,59.4-34.6,59.4-67.3
		s-27.6-65.1-60.4-65.1h-89.3c-32.7,0-58.4,32.3-58.4,65.1c0,32.7,26.6,67.3,59.4,67.3H3993.9L3993.9,417.9z M4317,212.2h-108.4
		v299.1H4317V212.2z M3783.1,527.3v11.3c0,14.2-0.1,200.4-0.2,217v5.1h5.1c105.4,0.1,258.2,0.1,363.6,0.1h167.1V527.3H3783.1z
		 M3893.1,658.8c0-9,0-17.9,0-27v-6.9v-10.8h316v57.8c-1.5,0.1-3,0.1-4.5,0.1c-107.4,0-190.3,0-297.7,0c-2.6,0-10.1,0-13.1-0.7
		C3893.1,668.5,3893.1,661.4,3893.1,658.8L3893.1,658.8z M3668.4,225.8v205.9h52.5v111.7h-52.5v212.5h-109.2V225.8H3668.4z
		 M3510.6,226.2v101.5h-288.5v106.2h288.5v108.9h-288.5v111.5h288.5v101.5h-399.5V226.2L3510.6,226.2L3510.6,226.2z M2890.4,525
		V226.2h-429v101.1h318.8v96.6h-318.8v332h429V654.8h-318.6V525H2890.4z M3047.8,226.2h-113v529.7h113V226.2z M2241.4,306.1
		l-0.2-83.2h115.4V589h-540.4V222.9h115.2v83.2L2241.4,306.1L2241.4,306.1z M1930.8,405.3v85.2h310.2v-85.2H1930.8z M1773.9,628.1
		c203,66,421.7,66,624.7,0c10.9,33.6,21.8,67.1,32.7,100.7c-224.3,72.9-465.9,72.9-690.1,0c8.8-26.9,17.5-53.9,26.2-80.8
		L1773.9,628.1z M1478.7,225.9v186.3h-17.6v-0.4h-0.2C1456,310.6,1378,229,1284.7,229h-32.6c-97.3,0-176.4,86.6-176.4,193v131.8
		c0,106.4,79.1,193,176.4,193h32.6c97.1,0,176.1-86.2,176.4-192.3h17.6v203.9h105.7V225.7h-105.7L1478.7,225.9L1478.7,225.9z
		 M1358.4,431.1v116.5c0,52.8-38.9,95.9-86.8,95.9h-7.5c-47.8,0-86.8-43-86.8-95.9V431.1c0-52.8,38.9-95.9,86.8-95.9h7.5
		C1319.6,335.3,1358.4,378.3,1358.4,431.1z M1602.7,225.7h103.5v532.5h-103.5V225.7z"/>
</g>
<g>
	<g>
		<path class="st4" d="M790.8-901.1c40.9,0,74-33.1,74-74c0-40.9-33.1-74-74-74s-74,33.1-74,74C716.8-934.2,749.9-901.1,790.8-901.1
			z"/>
		<path class="st4" d="M904.2-805.1H770.4c0,132.1-106.4,240.3-237.6,240.3S295.2-673,295.2-805.1h-134c0,206.5,166.3,375,371.5,375
			S904.2-598.6,904.2-805.1L904.2-805.1z"/>
		
			<linearGradient id="SVGID_00000029733473544760226580000007414108617130286219_" gradientUnits="userSpaceOnUse" x1="532.8" y1="1773.9091" x2="532.8" y2="1921.9091" gradientTransform="matrix(1 0 0 1 0 -2629.0537)">
			<stop  offset="0" style="stop-color:#BC0017"/>
			<stop  offset="0.11" style="stop-color:#C30416"/>
			<stop  offset="0.28" style="stop-color:#D90F16"/>
			<stop  offset="0.47" style="stop-color:#F91F15"/>
		</linearGradient>
		<path style="fill:url(#SVGID_00000029733473544760226580000007414108617130286219_);" d="M580.5-855.1H477.8l27.7,126.4
			c2.8,12.9,13.8,21.6,27.3,21.6s24.6-8.7,27.3-21.6l27.7-126.4H580.5L580.5-855.1z"/>
		<path class="st2" d="M572-899.9c-10.5-10.5-24.4-16.2-39.3-16.2c-30.6,0-55.5,24.9-55.5,55.5c0,30.6,24.9,55.5,55.5,55.5
			s55.5-24.9,55.5-55.5C588.2-875.4,582.5-889.4,572-899.9z"/>
	</g>
	<g>
		<path class="st6" d="M3881.7-1053.1H4017c80.4,0,146.8,71.1,146.8,151.5s-65.4,153.8-145.8,153.8h-135.4
			c-80.4,0-145.8-73.4-145.8-153.8C3736.9-982,3801.3-1053.1,3881.7-1053.1z M3993.9-835.7c32.7,0,59.4-34.6,59.4-67.3
			s-27.6-65.1-60.4-65.1h-89.3c-32.7,0-58.4,32.3-58.4,65.1c0,32.7,26.6,67.3,59.4,67.3H3993.9L3993.9-835.7z M4317-1041.4h-108.4
			v299.1H4317V-1041.4z M3783.1-726.3v11.3c0,14.2-0.1,200.4-0.2,217v5.1h5.1c105.4,0.1,258.2,0.1,363.6,0.1h167.1v-233.5H3783.1z
			 M3893-594.8c0-9,0-17.9,0-27v-6.9v-10.8h316v57.8c-1.5,0.1-3,0.1-4.5,0.1c-107.4,0-190.3,0-297.7,0c-2.6,0-10.1,0-13.1-0.7
			C3893-585.1,3893-592.2,3893-594.8L3893-594.8z M3668.3-1027.8v205.9h52.5v111.7h-52.5v212.5h-109.2v-530.1H3668.3z
			 M3510.6-1027.4v101.5h-288.5v106.2h288.5v108.9h-288.5v111.5h288.5v101.5h-399.5v-529.6H3510.6z M2890.4-728.6v-298.8h-429v101.1
			h318.8v96.6h-318.8v332h429v-101.1h-318.6v-129.8H2890.4z M3047.8-1027.4h-113.1v529.7h113.1V-1027.4z M2241.3-947.5l-0.2-83.2
			h115.4v366.1h-540.4v-366.1h115.2v83.2H2241.3L2241.3-947.5z M1930.9-848.3v85.2h310.2v-85.2H1930.9z M1774-625.5
			c203,66,421.7,66,624.7,0c10.9,33.6,21.8,67.1,32.7,100.7c-224.3,72.9-465.9,72.9-690.1,0c8.8-26.9,17.5-53.9,26.2-80.8
			L1774-625.5z M1478.7-1027.7v186.3h-17.6v-0.4h-0.2c-4.9-101.2-82.9-182.8-176.2-182.8h-32.6c-97.3,0-176.4,86.6-176.4,193v131.8
			c0,106.4,79.1,193,176.4,193h32.6c97.1,0,176.1-86.2,176.4-192.3h17.6v203.9h105.7v-532.7h-105.7L1478.7-1027.7L1478.7-1027.7z
			 M1358.4-822.5V-706c0,52.8-38.9,95.9-86.8,95.9h-7.5c-47.8,0-86.8-43-86.8-95.9v-116.5c0-52.8,38.9-95.9,86.8-95.9h7.5
			C1319.5-918.3,1358.4-875.3,1358.4-822.5z M1602.7-1027.9h103.5v532.5h-103.5V-1027.9z"/>
	</g>
</g>
</svg>
